<svg width="30" height="30" viewBox="0 0 40 40" fill="none" xmlns="http://www.w3.org/2000/svg">
<path d="M11.2 0.199997C12.8045 0.199997 14.3434 0.837406 15.4779 1.972C16.6125 3.1066 17.25 4.64544 17.25 6.25C17.25 7.85456 16.6125 9.3934 15.4779 10.528C14.3434 11.6626 12.8045 12.3 11.2 12.3C9.59539 12.3 8.05655 11.6626 6.92195 10.528C5.78736 9.3934 5.14995 7.85456 5.14995 6.25C5.14995 4.64544 5.78736 3.1066 6.92195 1.972C8.05655 0.837406 9.59539 0.199997 11.2 0.199997ZM11.2 2.4C10.1789 2.4 9.1996 2.80562 8.47759 3.52764C7.75557 4.24965 7.34995 5.22891 7.34995 6.25C7.34995 7.27108 7.75557 8.25034 8.47759 8.97236C9.1996 9.69437 10.1789 10.1 11.2 10.1C12.221 10.1 13.2003 9.69437 13.9223 8.97236C14.6443 8.25034 15.0499 7.27108 15.0499 6.25C15.0499 5.22891 14.6443 4.24965 13.9223 3.52764C13.2003 2.80562 12.221 2.4 11.2 2.4ZM12.7025 14.5H3.49995C2.62474 14.5 1.78537 14.8477 1.1665 15.4665C0.547629 16.0854 0.199951 16.9248 0.199951 17.8V18.9C0.199951 22.3914 2.85315 25.9664 7.49295 27.2248C7.91095 26.4746 8.50275 25.83 9.21115 25.3482C4.81995 24.6508 2.39995 21.6698 2.39995 18.9V17.8C2.39995 17.5083 2.51584 17.2285 2.72213 17.0222C2.92842 16.8159 3.20821 16.7 3.49995 16.7H11.9149C12.0733 15.9212 12.3418 15.182 12.7025 14.5ZM20 12.3C18.6824 12.2977 17.4004 12.7265 16.3493 13.5209C15.2983 14.3154 14.536 15.4318 14.1788 16.7C13.9439 17.5308 13.8895 18.4022 14.0191 19.2558C14.1488 20.1093 14.4594 20.9253 14.9303 21.6489C15.4012 22.3726 16.0214 22.9871 16.7493 23.4514C17.4772 23.9156 18.296 24.2188 19.1508 24.3406C19.5556 23.5574 20.0439 22.8226 20.6049 22.1516C19.8713 22.2678 19.1197 22.17 18.4402 21.87C17.7602 21.5683 17.1821 21.0761 16.7759 20.4529C16.3698 19.8296 16.1529 19.1021 16.1514 18.3581C16.15 17.6142 16.3641 16.8858 16.7679 16.2611C17.1717 15.6363 17.7479 15.1418 18.4267 14.8376C19.1055 14.5333 19.858 14.4322 20.5931 14.5465C21.3281 14.6608 22.0143 14.9857 22.5687 15.4817C23.1231 15.9778 23.5219 16.6238 23.7168 17.3417C23.9118 18.0596 23.8946 18.8187 23.6673 19.527C24.4191 19.0746 25.2181 18.7058 26.0499 18.427V18.35C26.0492 16.945 25.56 15.584 24.6661 14.5C23.5574 13.158 21.8787 12.3 20 12.3ZM39.0893 22.0284C38.5724 21.4252 37.9977 20.874 37.3733 20.3828C37.5229 19.8922 37.5999 19.3928 37.5999 18.9V17.8C37.5999 17.5083 37.4841 17.2285 37.2778 17.0222C37.0715 16.8159 36.7917 16.7 36.4999 16.7H28.0849C27.9295 15.9329 27.665 15.1921 27.2995 14.5H36.4999C37.3752 14.5 38.2145 14.8477 38.8334 15.4665C39.4523 16.0854 39.7999 16.9248 39.7999 17.8V18.9C39.7999 19.956 39.5579 21.0208 39.0893 22.0284ZM18.2553 26.6H12.2999C11.8663 26.5988 11.4366 26.6834 11.0357 26.8488C10.6348 27.0143 10.2706 27.2573 9.96391 27.564C9.65724 27.8706 9.41421 28.2349 9.24878 28.6358C9.08335 29.0367 8.99879 29.4663 8.99995 29.9V31C8.99995 35.3362 13.092 39.8 20 39.8C20.9262 39.8 21.8039 39.7186 22.6267 39.569C21.8612 38.9927 21.1663 38.3281 20.5565 37.589C20.3711 37.5965 20.1855 37.6001 20 37.6C14.3504 37.6 11.2 34.1636 11.2 31V29.9C11.2 29.6083 11.3158 29.3285 11.5221 29.1222C11.7284 28.9159 12.0082 28.8 12.2999 28.8H17.8484C17.9155 28.0556 18.0518 27.3191 18.2553 26.6ZM34.8499 6.25C34.8499 4.64544 34.2125 3.1066 33.0779 1.972C31.9434 0.837406 30.4045 0.199997 28.7999 0.199997C27.1954 0.199997 25.6565 0.837406 24.522 1.972C23.3874 3.1066 22.7499 4.64544 22.7499 6.25C22.7499 7.85456 23.3874 9.3934 24.522 10.528C25.6565 11.6626 27.1954 12.3 28.7999 12.3C30.4045 12.3 31.9434 11.6626 33.0779 10.528C34.2125 9.3934 34.8499 7.85456 34.8499 6.25ZM24.9499 6.25C24.9499 5.22891 25.3556 4.24965 26.0776 3.52764C26.7996 2.80562 27.7789 2.4 28.7999 2.4C29.821 2.4 30.8003 2.80562 31.5223 3.52764C32.2443 4.24965 32.6499 5.22891 32.6499 6.25C32.6499 7.27108 32.2443 8.25034 31.5223 8.97236C30.8003 9.69437 29.821 10.1 28.7999 10.1C27.7789 10.1 26.7996 9.69437 26.0776 8.97236C25.3556 8.25034 24.9499 7.27108 24.9499 6.25ZM29.8999 39.8C32.5256 39.8 35.0437 38.757 36.9003 36.9003C38.7569 35.0437 39.7999 32.5256 39.7999 29.9C39.7999 27.2744 38.7569 24.7562 36.9003 22.8996C35.0437 21.043 32.5256 20 29.8999 20C27.2743 20 24.7562 21.043 22.8996 22.8996C21.043 24.7562 20 27.2744 20 29.9C20 32.5256 21.043 35.0437 22.8996 36.9003C24.7562 38.757 27.2743 39.8 29.8999 39.8ZM29.8999 24.4C30.1917 24.4 30.4715 24.5159 30.6778 24.7222C30.8841 24.9285 30.9999 25.2083 30.9999 25.5V28.8H34.2999C34.5917 28.8 34.8715 28.9159 35.0778 29.1222C35.2841 29.3285 35.3999 29.6083 35.3999 29.9C35.3999 30.1917 35.2841 30.4715 35.0778 30.6778C34.8715 30.8841 34.5917 31 34.2999 31H30.9999V34.3C30.9999 34.5917 30.8841 34.8715 30.6778 35.0778C30.4715 35.2841 30.1917 35.4 29.8999 35.4C29.6082 35.4 29.3284 35.2841 29.1221 35.0778C28.9158 34.8715 28.7999 34.5917 28.7999 34.3V31H25.4999C25.2082 31 24.9284 30.8841 24.7221 30.6778C24.5158 30.4715 24.3999 30.1917 24.3999 29.9C24.3999 29.6083 24.5158 29.3285 24.7221 29.1222C24.9284 28.9159 25.2082 28.8 25.4999 28.8H28.7999V25.5C28.7999 25.2083 28.9158 24.9285 29.1221 24.7222C29.3284 24.5159 29.6082 24.4 29.8999 24.4Z" fill="#861DBF"/>
</svg>
