<svg width="24" height="19" viewBox="0 0 24 19" fill="none" xmlns="http://www.w3.org/2000/svg">
<rect width="24" height="19" rx="3" fill="#E64646"/>
<g clip-path="url(#clip0_174_925)">
<path d="M8.01495 13.9475H8.21355C9.74835 13.9475 11.2829 13.9475 12.8173 13.9475C12.902 13.9444 12.9868 13.9533 13.0691 13.974C13.1822 14.0102 13.2795 14.0848 13.3446 14.1851C13.4097 14.2855 13.4387 14.4055 13.4265 14.5249C13.4144 14.6444 13.3619 14.7559 13.278 14.8407C13.194 14.9256 13.0837 14.9785 12.9657 14.9906C12.9174 14.9953 12.8688 14.9974 12.8202 14.9968C11.083 14.9968 9.34597 14.9968 7.609 14.9968C7.44701 14.9968 7.29344 14.9775 7.16838 14.8611C7.06244 14.7627 6.99764 14.64 6.99959 14.4938C7.00672 13.979 6.97885 13.4595 7.03749 12.9506C7.16385 11.8495 7.71591 10.9906 8.62209 10.3706C9.23085 9.95377 9.90991 9.75505 10.6466 9.75734C11.3471 9.75997 12.0475 9.75505 12.7483 9.75898C13.5294 9.76357 14.2325 10.0105 14.8607 10.4761C15.1056 10.6578 15.1581 10.972 14.9903 11.2136C14.9506 11.2708 14.9 11.3194 14.8414 11.3564C14.7828 11.3934 14.7175 11.418 14.6493 11.4289C14.5811 11.4398 14.5114 11.4367 14.4444 11.4198C14.3774 11.4028 14.3145 11.3724 14.2594 11.3304C13.7523 10.9595 13.1902 10.7942 12.5646 10.8057C11.929 10.8185 11.2933 10.8057 10.6577 10.809C9.38182 10.8126 8.34865 11.6498 8.094 12.9142C8.02855 13.2461 8.04086 13.5904 8.01495 13.9475Z" fill="white"/>
<path d="M11.0429 4.00165C12.3065 3.98558 13.3607 5.03918 13.3792 6.3397C13.3973 7.61858 12.3502 8.70071 11.0789 8.71809C10.4596 8.7265 9.86224 8.48581 9.41809 8.04886C8.97393 7.61191 8.71924 7.01442 8.70994 6.38758C8.69213 5.07164 9.72336 4.01706 11.0429 4.00165ZM9.74992 6.34888C9.74906 6.69669 9.88441 7.03068 10.1263 7.27769C10.3683 7.5247 10.697 7.66461 11.0407 7.66678C11.7408 7.67334 12.3333 7.07915 12.3366 6.36593C12.3377 6.19394 12.3053 6.02341 12.2413 5.86408C12.1773 5.70475 12.0829 5.55974 11.9635 5.43734C11.8442 5.31493 11.7021 5.21751 11.5456 5.15066C11.389 5.08381 11.221 5.04882 11.051 5.0477C10.8811 5.04658 10.7126 5.07935 10.5552 5.14414C10.3978 5.20892 10.2545 5.30445 10.1336 5.42528C10.0126 5.5461 9.9164 5.68986 9.85035 5.84833C9.7843 6.0068 9.74973 6.17689 9.74863 6.34888H9.74992Z" fill="white"/>
<path d="M14.9336 13.4698C15.0372 13.3629 15.1322 13.2636 15.2287 13.1662C15.5145 12.8765 15.8005 12.5875 16.0869 12.2992C16.3157 12.0696 16.6306 12.0575 16.8444 12.268C17.0582 12.4785 17.0514 12.8084 16.8208 13.0426C16.324 13.5467 15.8263 14.0495 15.3275 14.551C15.0797 14.7999 14.7839 14.7982 14.5357 14.551C14.2117 14.2259 13.8884 13.8994 13.5657 13.5715C13.3292 13.3311 13.3172 13.0173 13.5333 12.7983C13.7494 12.5792 14.0666 12.5936 14.2992 12.8278C14.5079 13.0363 14.7149 13.2491 14.9336 13.4698Z" fill="white"/>
</g>
<defs>
<clipPath id="clip0_174_925">
<rect width="10" height="11" fill="white" transform="translate(7 4)"/>
</clipPath>
</defs>
</svg>
