<svg width="52" height="60" viewBox="0 0 46 50" fill="none" xmlns="http://www.w3.org/2000/svg">
<path d="M14.351 1.5H31.6362C32.5944 1.8201 33.1756 2.4456 33.2769 3.44147C34.6342 3.44147 35.9478 3.39482 37.2538 3.45859C38.0331 3.49008 38.804 3.62637 39.5437 3.86335C41.5962 4.55139 43.5089 6.61425 43.5 9.64356C43.4653 20.5368 43.4871 31.4289 43.4846 42.3221C43.4846 42.5809 43.4705 42.8421 43.4525 43.1008C43.2421 46.0836 40.5699 48.4972 37.4411 48.4972C27.8085 48.5037 18.1752 48.4989 8.54095 48.4825C7.80729 48.4709 7.08172 48.3338 6.39858 48.0778C3.91113 47.1567 2.50128 45.0484 2.5 42.3625C2.5 31.4546 2.5 20.5466 2.5 9.63865C2.5 9.39336 2.51026 9.14807 2.52822 8.90278C2.70525 6.45726 4.4153 4.33923 6.88992 3.72478C7.9162 3.46845 9.03741 3.49663 10.1176 3.44512C10.9745 3.40342 11.8366 3.43656 12.7115 3.43656C12.8257 2.41984 13.4094 1.81765 14.351 1.5ZM12.623 7.38075C11.2952 7.38075 9.90334 7.35749 8.51786 7.39183C7.84436 7.409 7.24527 7.71925 6.95278 8.30549C6.74244 8.74557 6.63266 9.22349 6.63078 9.70733C6.61282 18.7487 6.60855 27.79 6.61795 36.8313C6.61795 38.7127 6.60769 40.594 6.61795 42.473C6.62693 43.7865 7.44539 44.5653 8.7988 44.5653C18.2714 44.5653 27.744 44.5653 37.2166 44.5653C37.4395 44.5699 37.662 44.5463 37.8785 44.4953C38.8907 44.2267 39.3782 43.497 39.3782 42.2705C39.3782 31.4092 39.3782 20.5479 39.3782 9.68649C39.3782 9.53442 39.3782 9.38111 39.3653 9.22903C39.2768 8.23316 38.5828 7.45439 37.5514 7.4041C36.1402 7.33542 34.7111 7.38692 33.2987 7.38692C32.9228 8.88318 32.3186 9.3406 30.7407 9.3406H26.0352C22.3868 9.3406 18.7396 9.3406 15.0912 9.3406C14.3099 9.3406 13.6121 9.17017 13.1669 8.52874C12.9245 8.20373 12.8103 7.79529 12.623 7.38075Z" fill="#861DBF"/>
<path d="M20.3142 25.9138L25.7509 21.3503C26.4689 20.7499 27.1818 20.1494 27.9048 19.5489C28.8195 18.7984 30.0274 18.8704 30.7867 19.7087C31.5097 20.5049 31.4194 21.6998 30.5424 22.4396C27.5352 24.9711 24.5255 27.495 21.5133 30.0113C20.5623 30.8051 19.4684 30.7415 18.5888 29.878C17.6833 28.9885 16.7828 28.0938 15.8873 27.194C15.0541 26.3533 15.0441 25.1872 15.8523 24.4222C16.6604 23.6573 17.8934 23.6873 18.7755 24.5219C19.2667 24.9891 19.7766 25.431 20.3142 25.9138Z" fill="#861DBF"/>
</svg>
