<svg width="50" height="55" viewBox="0 0 52 60" fill="none" xmlns="http://www.w3.org/2000/svg">
<path d="M38.8197 26.7998C38.8197 26.3754 38.6511 25.9685 38.351 25.6684C38.051 25.3684 37.644 25.1998 37.2197 25.1998C36.7953 25.1998 36.3883 25.3684 36.0883 25.6684C35.7882 25.9685 35.6197 26.3754 35.6197 26.7998H38.8197ZM16.4197 26.7998C16.4197 26.3754 16.2511 25.9685 15.951 25.6684C15.651 25.3684 15.244 25.1998 14.8197 25.1998C14.3953 25.1998 13.9883 25.3684 13.6883 25.6684C13.3882 25.9685 13.2197 26.3754 13.2197 26.7998H16.4197ZM39.2885 31.131C39.5902 31.4225 39.9944 31.5838 40.4139 31.5801C40.8334 31.5765 41.2347 31.4082 41.5314 31.1116C41.828 30.8149 41.9963 30.4136 41.9999 29.9941C42.0036 29.5746 41.8423 29.1704 41.5509 28.8686L39.2885 31.131ZM26.0197 15.5997L27.1509 14.4685C26.8508 14.1685 26.4439 14 26.0197 14C25.5954 14 25.1885 14.1685 24.8885 14.4685L26.0197 15.5997ZM10.4885 28.8686C10.3356 29.0162 10.2138 29.1928 10.1299 29.388C10.046 29.5832 10.0019 29.7931 10.0001 30.0056C9.99821 30.218 10.0387 30.4287 10.1191 30.6254C10.1996 30.822 10.3184 31.0006 10.4686 31.1509C10.6189 31.3011 10.7975 31.4199 10.9941 31.5004C11.1908 31.5808 11.4015 31.6213 11.6139 31.6194C11.8264 31.6176 12.0363 31.5735 12.2315 31.4896C12.4267 31.4058 12.6033 31.2839 12.7509 31.131L10.4885 28.8686ZM18.0197 46H34.0197V42.8H18.0197V46ZM38.8197 41.1999V26.7998H35.6197V41.1999H38.8197ZM16.4197 41.1999V26.7998H13.2197V41.1999H16.4197ZM41.5509 28.8686L27.1509 14.4685L24.8885 16.7309L39.2885 31.131L41.5509 28.8686ZM24.8885 14.4685L10.4885 28.8686L12.7509 31.131L27.1509 16.7309L24.8885 14.4685ZM34.0197 46C35.2927 46 36.5136 45.4943 37.4138 44.5941C38.314 43.6939 38.8197 42.473 38.8197 41.1999H35.6197C35.6197 41.6243 35.4511 42.0313 35.151 42.3313C34.851 42.6314 34.444 42.8 34.0197 42.8V46ZM18.0197 42.8C17.5953 42.8 17.1883 42.6314 16.8883 42.3313C16.5882 42.0313 16.4197 41.6243 16.4197 41.1999H13.2197C13.2197 42.473 13.7254 43.6939 14.6255 44.5941C15.5257 45.4943 16.7466 46 18.0197 46V42.8Z" fill="#861DBF"/>
</svg>
