<?xml version="1.0" standalone="no"?>
<!DOCTYPE svg PUBLIC "-//W3C//DTD SVG 20010904//EN"
 "http://www.w3.org/TR/2001/REC-SVG-20010904/DTD/svg10.dtd">
<svg version="1.0" xmlns="http://www.w3.org/2000/svg"
 width="51" height="30" viewBox="0 0 512.000000 512.000000"
 preserveAspectRatio="xMidYMid meet">

<g transform="translate(0.000000,512.000000) scale(0.100000,-0.100000)"
fill="#861DBF" stroke="none">
<path d="M920 4405 l0 -615 -410 0 -410 0 2 -1632 3 -1633 22 -65 c55 -162
177 -282 337 -333 l71 -22 2025 0 2025 0 71 22 c163 52 285 174 337 338 l22
70 0 2240 0 2240 -2047 3 -2048 2 0 -615z m3890 -1723 c0 -2421 9 -2184 -89
-2283 -98 -98 91 -89 -1924 -89 -973 0 -1767 3 -1765 8 2 4 15 30 29 57 15 28
35 75 45 105 18 53 19 138 22 2193 l2 2137 1840 0 1840 0 0 -2128z m-3892
-624 l-3 -1533 -23 -42 c-59 -111 -157 -173 -273 -173 -96 0 -154 23 -220 89
-97 98 -89 -58 -89 1673 l0 1518 305 0 305 0 -2 -1532z"/>
<path d="M1540 4200 l0 -100 1430 0 1430 0 0 100 0 100 -1430 0 -1430 0 0
-100z"/>
<path d="M1950 3690 l0 -100 1020 0 1020 0 0 100 0 100 -1020 0 -1020 0 0
-100z"/>
<path d="M1540 2355 l0 -615 610 0 610 0 0 615 0 615 -610 0 -610 0 0 -615z
m1020 0 l0 -415 -410 0 -410 0 0 415 0 415 410 0 410 0 0 -415z"/>
<path d="M3180 2870 l0 -100 610 0 610 0 0 100 0 100 -610 0 -610 0 0 -100z"/>
<path d="M3180 2355 l0 -105 610 0 610 0 0 105 0 105 -610 0 -610 0 0 -105z"/>
<path d="M3180 1840 l0 -100 610 0 610 0 0 100 0 100 -610 0 -610 0 0 -100z"/>
<path d="M1540 1330 l0 -100 610 0 610 0 0 100 0 100 -610 0 -610 0 0 -100z"/>
<path d="M3180 1330 l0 -100 610 0 610 0 0 100 0 100 -610 0 -610 0 0 -100z"/>
<path d="M1540 820 l0 -100 610 0 610 0 0 100 0 100 -610 0 -610 0 0 -100z"/>
<path d="M3180 820 l0 -100 610 0 610 0 0 100 0 100 -610 0 -610 0 0 -100z"/>
</g>
</svg>
