<svg width="47" height="47" viewBox="0 0 54 56" fill="none" xmlns="http://www.w3.org/2000/svg">
<path d="M27 23C30.5208 23 33.375 20.1458 33.375 16.625C33.375 13.1042 30.5208 10.25 27 10.25C23.4792 10.25 20.625 13.1042 20.625 16.625C20.625 20.1458 23.4792 23 27 23Z" stroke="#861DBF" stroke-width="2.5"/>
<path d="M10 41.5C10 39.2457 10.8955 37.0837 12.4896 35.4896C14.0837 33.8955 16.2457 33 18.5 33H35.5C37.7543 33 39.9163 33.8955 41.5104 35.4896C43.1045 37.0837 44 39.2457 44 41.5C44 42.6272 43.5522 43.7082 42.7552 44.5052C41.9582 45.3022 40.8772 45.75 39.75 45.75H14.25C13.1228 45.75 12.0418 45.3022 11.2448 44.5052C10.4478 43.7082 10 42.6272 10 41.5Z" stroke="#861DBF" stroke-width="2.5" stroke-linejoin="round"/>
</svg>
