 <svg  version="1.0" xmlns="http://www.w3.org/2000/svg"  width="29pt" height="29pt" viewBox="0 0 768.000000 768.000000"  preserveAspectRatio="xMidYMid meet">  <g transform="translate(0.000000,768.000000) scale(0.100000,-0.100000)" fill="#861dbf" stroke="none"> <path d="M3725 7624 c-42 -22 -111 -80 -135 -114 -27 -38 -41 -119 -49 -295 l-6 -140 -450 -6 c-247 -4 -783 -7 -1190 -8 -788 -1 -1200 -13 -1249 -37 -16 -8 -34 -14 -40 -14 -6 0 -58 -24 -116 -52 -92 -46 -118 -65 -206 -153 -71 -70 -116 -126 -152 -186 -29 -48 -52 -93 -52 -101 0 -8 -4 -18 -8 -24 -5 -5 -17 -31 -28 -59 -19 -49 -19 -105 -19 -2177 0 -1688 3 -2130 13 -2140 6 -6 12 -19 12 -26 0 -23 68 -161 112 -227 48 -71 165 -190 228 -231 25 -16 47 -32 50 -35 9 -11 134 -66 200 -87 58 -19 103 -23 417 -32 194 -5 827 -10 1406 -10 806 0 1056 -3 1065 -12 13 -13 16 -86 4 -105 -4 -6 -320 -169 -702 -361 -382 -192 -749 -377 -815 -411 -188 -98 -232 -160 -223 -313 6 -92 20 -127 70 -174 71 -66 99 -76 201 -72 75 3 103 9 152 32 140 65 457 222 858 422 236 118 435 214 442 214 15 0 20 -15 29 -80 23 -169 80 -250 208 -295 55 -19 85 -19 158 2 124 34 183 116 206 288 10 72 14 85 30 85 9 0 278 -130 598 -289 319 -159 613 -303 651 -321 39 -17 82 -38 97 -46 43 -23 181 -19 234 8 51 25 94 68 123 123 29 56 30 194 1 248 -52 97 -86 116 -1115 630 -330 165 -602 301 -604 303 -2 2 -6 23 -8 48 -10 83 -109 76 1079 76 1264 0 1721 10 1818 41 64 20 190 76 200 89 3 3 23 17 45 30 117 70 261 249 329 410 50 119 47 -30 44 2251 -2 1493 -6 2120 -14 2130 -6 8 -19 37 -29 64 -34 96 -123 231 -210 320 -81 82 -215 165 -339 209 -63 22 -97 26 -306 35 -129 6 -568 12 -975 12 -407 1 -942 4 -1190 8 l-450 6 -6 155 c-3 85 -11 174 -18 198 -22 82 -75 143 -168 195 -41 22 -165 23 -208 1z m3344 -1441 c13 -26 19 -3809 5 -3823 -7 -7 -994 -9 -3250 -8 l-3239 3 -3 1898 c-1 1265 1 1905 8 1917 8 14 24 20 68 23 31 2 1484 4 3229 5 3012 2 3173 1 3182 -15z"/> <path d="M6038 5823 c-34 -27 -252 -235 -483 -463 -537 -532 -530 -525 -555 -514 -11 5 -138 126 -282 270 -295 292 -420 409 -461 431 -46 24 -132 33 -194 22 -86 -16 -124 -46 -184 -146 -29 -48 -59 -94 -66 -101 -7 -7 -13 -17 -13 -22 0 -5 -40 -76 -90 -158 -49 -83 -90 -155 -90 -161 0 -6 -4 -11 -9 -11 -5 0 -13 -9 -16 -20 -4 -12 -40 -77 -81 -145 -41 -69 -74 -127 -74 -130 0 -2 -24 -44 -54 -93 -29 -49 -57 -99 -60 -110 -4 -12 -12 -22 -17 -22 -5 0 -9 -5 -9 -11 0 -6 -29 -60 -65 -119 -36 -59 -65 -113 -65 -119 0 -6 -4 -11 -9 -11 -5 0 -13 -10 -18 -23 -4 -13 -35 -69 -68 -125 -77 -131 -87 -132 -135 -17 -11 28 -25 58 -30 67 -6 10 -10 23 -10 29 0 6 -13 40 -30 76 -16 35 -30 70 -30 76 0 7 -6 23 -13 37 -7 14 -21 48 -31 75 -10 28 -27 70 -38 95 -31 72 -34 80 -73 175 -91 224 -139 288 -238 318 -131 39 -192 18 -341 -118 -122 -113 -746 -740 -815 -820 -73 -84 -93 -122 -99 -191 -7 -94 38 -179 138 -258 34 -27 115 -38 195 -27 91 13 125 40 438 351 142 140 267 258 278 262 14 6 22 3 26 -10 3 -9 14 -35 23 -57 9 -22 23 -56 30 -75 7 -19 21 -53 30 -75 10 -22 39 -94 65 -160 25 -66 51 -129 55 -140 5 -11 19 -45 31 -75 23 -58 45 -112 59 -145 5 -11 32 -76 60 -145 93 -228 121 -267 223 -314 51 -24 152 -24 203 0 82 38 111 71 224 259 60 101 110 188 110 194 0 6 3 11 8 11 4 0 18 21 32 48 13 26 51 90 82 143 32 53 58 102 58 108 0 6 5 11 10 11 6 0 10 5 10 11 0 6 29 60 65 119 36 59 65 113 65 119 0 6 4 11 9 11 5 0 13 10 17 22 3 12 23 49 44 83 21 34 41 71 44 83 4 12 11 22 16 22 5 0 12 10 16 22 3 11 26 54 50 93 24 40 44 78 44 84 0 6 5 11 10 11 6 0 10 5 10 11 0 6 23 48 50 94 28 46 50 88 50 94 0 6 5 11 10 11 6 0 10 5 10 11 0 6 19 42 41 80 32 54 46 69 65 69 12 0 27 -6 31 -13 4 -7 24 -25 43 -41 19 -15 132 -124 250 -241 346 -342 383 -370 490 -370 83 0 143 33 270 150 69 64 786 781 987 987 88 91 161 175 173 200 32 67 36 142 11 212 -25 73 -67 117 -145 156 -49 25 -71 30 -132 30 -70 0 -73 -1 -136 -47z"/> </g> </svg>
