<svg width="21" height="24" viewBox="0 0 21 24" fill="none" xmlns="http://www.w3.org/2000/svg">
<path d="M5.5 4.5H3C2.46957 4.5 1.96086 4.71071 1.58579 5.08579C1.21071 5.46086 1 5.96957 1 6.5V20.5C1 21.0304 1.21071 21.5391 1.58579 21.9142C1.96086 22.2893 2.46957 22.5 3 22.5H9M12.5 4.5H15C15.5304 4.5 16.0391 4.71071 16.4142 5.08579C16.7893 5.46086 17 5.96957 17 6.5V15.5" stroke="#2858EE" stroke-width="2" stroke-linecap="round"/>
<path d="M5 6.9V5C5 4.86739 5.05268 4.74021 5.14645 4.64645C5.24021 4.55268 5.36739 4.5 5.5 4.5C5.776 4.5 6.004 4.276 6.052 4.004C6.2 3.152 6.774 1.5 9 1.5C11.226 1.5 11.8 3.152 11.948 4.004C11.996 4.276 12.224 4.5 12.5 4.5C12.6326 4.5 12.7598 4.55268 12.8536 4.64645C12.9473 4.74021 13 4.86739 13 5V6.9C13 7.05913 12.9368 7.21174 12.8243 7.32426C12.7117 7.43679 12.5591 7.5 12.4 7.5H5.6C5.44087 7.5 5.28826 7.43679 5.17574 7.32426C5.06321 7.21174 5 7.05913 5 6.9Z" stroke="#2858EE" stroke-width="2" stroke-linecap="round"/>
<path d="M12.5 21L14.5 23L19.5 18" stroke="#2858EE" stroke-width="2" stroke-linecap="round" stroke-linejoin="round"/>
</svg>
