<svg width="55" height="40" viewBox="0 0 61 68" fill="none" xmlns="http://www.w3.org/2000/svg">
<path d="M21.851 10.5H39.1362C40.0944 10.8201 40.6756 11.4456 40.7769 12.4415C42.1342 12.4415 43.4478 12.3948 44.7538 12.4586C45.5331 12.4901 46.304 12.6264 47.0437 12.8634C49.0962 13.5514 51.0089 15.6142 51 18.6436C50.9653 29.5368 50.9871 40.4289 50.9846 51.3221C50.9846 51.5809 50.9705 51.8421 50.9525 52.1008C50.7421 55.0836 48.0699 57.4972 44.9411 57.4972C35.3085 57.5037 25.6752 57.4989 16.0409 57.4825C15.3073 57.4709 14.5817 57.3338 13.8986 57.0778C11.4111 56.1567 10.0013 54.0484 10 51.3625C10 40.4546 10 29.5466 10 18.6386C10 18.3934 10.0103 18.1481 10.0282 17.9028C10.2053 15.4573 11.9153 13.3392 14.3899 12.7248C15.4162 12.4685 16.5374 12.4966 17.6176 12.4451C18.4745 12.4034 19.3366 12.4366 20.2115 12.4366C20.3257 11.4198 20.9094 10.8176 21.851 10.5ZM20.123 16.3807C18.7952 16.3807 17.4033 16.3575 16.0179 16.3918C15.3444 16.409 14.7453 16.7193 14.4528 17.3055C14.2424 17.7456 14.1327 18.2235 14.1308 18.7073C14.1128 27.7487 14.1085 36.79 14.118 45.8313C14.118 47.7127 14.1077 49.594 14.118 51.473C14.1269 52.7865 14.9454 53.5653 16.2988 53.5653C25.7714 53.5653 35.244 53.5653 44.7166 53.5653C44.9395 53.5699 45.162 53.5463 45.3785 53.4953C46.3907 53.2267 46.8782 52.497 46.8782 51.2705C46.8782 40.4092 46.8782 29.5479 46.8782 18.6865C46.8782 18.5344 46.8782 18.3811 46.8653 18.229C46.7768 17.2332 46.0828 16.4544 45.0514 16.4041C43.6402 16.3354 42.2111 16.3869 40.7987 16.3869C40.4228 17.8832 39.8186 18.3406 38.2407 18.3406H33.5352C29.8868 18.3406 26.2396 18.3406 22.5912 18.3406C21.8099 18.3406 21.1121 18.1702 20.6669 17.5287C20.4245 17.2037 20.3103 16.7953 20.123 16.3807Z" fill="#861DBF"/>
<path d="M26.8591 35.2245L34.2289 29.1094C35.2022 28.3048 36.1686 27.5002 37.1487 26.6956C38.3886 25.6898 40.0259 25.7864 41.0552 26.9096C42.0352 27.9765 41.913 29.5778 40.724 30.569C36.6476 33.9613 32.5678 37.3433 28.4846 40.7151C27.1954 41.7788 25.7126 41.6936 24.5203 40.5365C23.2928 39.3446 22.0722 38.1458 20.8583 36.9399C19.7288 35.8135 19.7152 34.2509 20.8108 33.2258C21.9063 32.2007 23.5776 32.241 24.7734 33.3594C25.4392 33.9854 26.1305 34.5776 26.8591 35.2245Z" fill="#861DBF"/>
</svg>
